PathFileType  4	(X/Y/Z) C:\Users\antoi\Documents\MyRepositories\mobilecap\ResultsAnalysis
DataRate	CameraRate	NumFrames	NumMarkers	Units	OrigDataRate	OrigDataStartFrame	OrigNumFrames
100.0	100.0	6	51	mm	100.0	646	861
Frame#	Time	r_knee			r_shank_antsup			r_ankle			r_calc			r_5meta			r_toe			L_knee			L_shank_antsup			L_ankle			L_calc			L_5meta			L_toe			r_sh2			r_sh3			r_sh4			L_sh2			L_sh3			r_thigh1			r_thigh2			r_thigh3			r_thigh4			r_thigh5			L_thigh1			L_thigh2			L_thigh3			L_thigh4			r.ASIS			r.PSIS			L.ASIS			L.PSIS			C7			R_Shoulder			L_Shoulder			R_Sternum			L_Sternum			R_humerus			R_elbow_med			R_elbow_lat			R_forearm			R_wrist_radius			R_wrist_ulna			L_humerus			L_elbow_med			L_elbow_lat			L_forearm			L_wrist_radius			L_wrist_ulna			R_HJC			L_HJC			R_HJC_reg			L_HJC_reg			
		X1	Y1	Z1	X2	Y2	Z2	X3	Y3	Z3	X4	Y4	Z4	X5	Y5	Z5	X6	Y6	Z6	X7	Y7	Z7	X8	Y8	Z8	X9	Y9	Z9	X10	Y10	Z10	X11	Y11	Z11	X12	Y12	Z12	X13	Y13	Z13	X14	Y14	Z14	X15	Y15	Z15	X16	Y16	Z16	X17	Y17	Z17	X18	Y18	Z18	X19	Y19	Z19	X20	Y20	Z20	X21	Y21	Z21	X22	Y22	Z22	X23	Y23	Z23	X24	Y24	Z24	X25	Y25	Z25	X26	Y26	Z26	X27	Y27	Z27	X28	Y28	Z28	X29	Y29	Z29	X30	Y30	Z30	X31	Y31	Z31	X32	Y32	Z32	X33	Y33	Z33	X34	Y34	Z34	X35	Y35	Z35	X36	Y36	Z36	X37	Y37	Z37	X38	Y38	Z38	X39	Y39	Z39	X40	Y40	Z40	X41	Y41	Z41	X42	Y42	Z42	X43	Y43	Z43	X44	Y44	Z44	X45	Y45	Z45	X46	Y46	Z46	X47	Y47	Z47	X48	Y48	Z48	X49	Y49	Z49	X50	Y50	Z50	X51	Y51	Z51	

646	6.45000000	-268.12337	591.23393	-373.86363	-213.80322	460.09720	-352.08692	-305.56613	105.00809	-331.91614	-357.04167	70.07649	-397.57221	-173.18292	49.50937	-286.78551	-133.76869	83.57868	-331.94822	-252.99206	578.76729	-907.71057	-190.38906	395.18513	-905.93070	-320.08188	113.31124	-922.66602	-378.81654	73.62759	-861.93857	-186.32267	39.41331	-969.96534	-141.99220	70.65410	-914.46010	-225.24821	346.31428	-349.89694	-283.96252	465.03632	-326.01050	-298.78745	353.97599	-313.34304	-260.35681	418.52665	-957.23267	-288.14386	302.56415	-948.36807	-544.61348	662.89259	-416.59745	-436.50776	668.56040	-390.77866	-417.73249	603.33048	-375.07677	-546.97741	552.64448	-422.99488	-429.88368	551.52697	-397.72796	-524.66883	685.92650	-858.63042	-392.83386	676.21518	-884.42970	-545.23441	582.26038	-886.35893	-409.70871	573.51666	-918.69834	-601.14715	707.13671	-506.96779	-777.23540	743.31754	-615.39506	-592.69045	690.81120	-777.98199	-770.17420	744.37939	-701.93492	-408.18076	1105.68875	-650.32931	-331.46417	1053.38085	-502.19665	-335.64503	1070.15312	-792.03608	-323.85888	960.06121	-623.60765	-323.56435	957.32877	-667.91946	-208.94342	880.44800	-398.86680	-192.70623	725.57555	-366.52047	-172.45829	791.28678	-307.04690	-43.42028	870.76478	-455.50319	6.68129	905.76421	-516.94586	32.17562	883.50050	-501.73974	-176.99120	890.03265	-868.47275	-179.79682	755.23885	-895.59852	-137.44346	816.23584	-939.49910	-19.82468	891.66123	-787.94710	11.07299	917.30213	-726.66517	35.67715	902.25551	-746.26692	-684.06085	615.20595	-546.18380	-678.15886	607.86517	-743.43286	-674.63965	617.08312	-552.55585	-660.05972	619.27340	-731.22627	
647	6.46000000	-270.46934	591.74722	-373.00757	-215.65073	460.68157	-351.17963	-306.07542	105.14232	-331.32488	-357.41196	70.05667	-397.46513	-173.58427	49.74998	-286.46017	-134.17433	83.94352	-331.42919	-255.53208	579.26921	-908.77936	-192.10853	396.01868	-906.95134	-320.56402	113.49581	-923.09427	-378.93007	73.83396	-862.25457	-186.48342	39.26370	-970.09356	-142.09373	70.75203	-914.72447	-226.61509	346.78354	-349.22149	-285.82764	465.33169	-324.98653	-300.36174	354.30464	-312.62340	-262.22623	418.85938	-958.17143	-289.36389	302.87041	-949.02939	-546.77498	663.43983	-415.79476	-438.82877	669.07143	-389.60429	-420.09080	603.70144	-374.41827	-549.36680	553.87040	-422.92156	-432.22803	552.14505	-397.46797	-526.86429	686.92361	-859.43104	-395.18809	676.77046	-885.68148	-547.57109	583.14548	-886.44276	-412.23270	573.79583	-918.95835	-604.54932	709.07232	-506.56465	-780.68526	744.85251	-615.23034	-595.50920	692.01955	-776.74968	-773.42502	745.59932	-701.52860	-411.65179	1108.14633	-650.20255	-334.80257	1055.12572	-501.84535	-339.31234	1071.95702	-791.99198	-327.83272	962.41025	-623.25678	-327.58139	959.72135	-667.89868	-214.55924	879.59440	-399.20883	-200.87744	724.24845	-368.36067	-179.96504	789.06412	-308.22398	-49.38692	867.81678	-455.59261	1.25806	902.69322	-516.80266	26.49246	879.98168	-501.77362	-183.25938	888.59739	-868.97686	-188.38394	754.18356	-895.28353	-145.45467	814.33689	-939.75191	-26.52479	888.50182	-788.70107	4.89797	913.82239	-727.54518	29.22843	898.28223	-746.73696	-687.40243	616.99435	-545.31266	-681.05347	609.07261	-742.52520	-677.94333	619.19637	-551.88548	-662.95616	620.73623	-730.02415	
648	6.47000000	-272.50802	592.06645	-372.06090	-217.20866	461.05317	-350.37172	-306.69800	104.92320	-331.11321	-357.68781	70.10589	-397.34977	-173.85495	49.66178	-286.18489	-134.42542	83.94967	-330.92438	-257.91241	579.46643	-909.42704	-193.71253	396.64215	-907.85712	-321.24590	113.63412	-923.48495	-379.25186	73.89538	-862.54959	-186.85255	39.15237	-970.04664	-142.31463	71.23861	-915.40237	-227.87212	347.14498	-348.32694	-287.35809	465.45197	-324.05873	-301.69355	354.62758	-311.69693	-264.02563	419.14530	-959.08541	-290.55297	303.07796	-949.67040	-548.58276	663.74081	-415.16632	-440.80320	669.40208	-388.44977	-422.18489	603.82589	-373.66834	-551.14329	554.12234	-423.10916	-434.25100	552.42485	-397.17816	-528.97605	687.39168	-860.39113	-397.36376	676.95738	-886.99495	-549.69228	583.37550	-886.34185	-414.50615	573.57441	-919.16586	-607.50390	710.67275	-506.19054	-783.61277	745.81620	-614.80570	-598.11273	693.67641	-776.33897	-776.38439	746.53666	-701.25055	-415.41058	1110.53511	-650.09398	-338.40329	1057.02341	-501.38252	-343.11851	1073.92537	-791.98183	-331.64666	965.12716	-622.98788	-331.48641	962.42186	-667.78265	-220.00587	879.12989	-399.81279	-208.87327	723.48805	-370.01486	-187.17472	787.24029	-309.31790	-55.16356	864.99222	-455.88799	-3.93951	899.48381	-517.02003	21.05362	876.41378	-502.11066	-189.24484	887.87837	-869.69801	-196.63444	753.62454	-895.24930	-153.19262	812.96863	-939.92342	-32.91193	885.46483	-789.23229	-0.96255	910.32361	-728.20266	23.17823	894.64972	-747.58702	-689.91861	618.27968	-544.94758	-683.41641	610.39955	-742.15884	-680.42835	620.64677	-551.41524	-665.53154	622.13021	-729.54579	
649	6.48000000	-274.18614	592.21498	-370.96788	-218.48761	461.31650	-349.45675	-307.12757	104.60217	-331.00356	-357.75407	70.25383	-397.10913	-173.86705	48.95796	-285.91596	-134.38411	83.37474	-330.46231	-259.97032	579.70035	-910.17633	-195.07326	397.15153	-908.75494	-321.80818	113.64792	-923.74422	-379.56334	73.94131	-862.77291	-187.19461	38.84142	-969.80609	-142.46561	71.64521	-916.23298	-228.89230	347.45855	-347.38466	-288.56936	465.51373	-323.12453	-302.75103	354.65267	-310.75827	-265.57246	419.40822	-959.95423	-291.64232	303.14500	-950.35927	-550.22150	663.72336	-414.52819	-442.48737	669.62197	-387.44124	-423.91202	603.89016	-372.83736	-552.40803	553.84379	-423.28160	-435.87581	552.50882	-396.60864	-530.92823	687.56732	-861.35235	-399.31022	676.94130	-888.17234	-551.62257	583.20649	-886.20075	-416.54617	573.24203	-919.45208	-610.05660	711.84164	-505.87780	-785.81815	746.00762	-613.95361	-600.81447	695.39425	-777.13973	-779.11870	746.92963	-701.04236	-419.45975	1112.69973	-649.94167	-342.39712	1058.92983	-500.94283	-347.15415	1075.88961	-792.10997	-335.37327	968.01247	-622.77440	-335.30773	965.22367	-667.54837	-225.43899	879.15969	-400.37671	-216.61561	723.24913	-371.19206	-193.99404	786.23236	-310.20476	-60.70603	862.37556	-456.54999	-8.99093	896.20279	-517.62089	15.79480	872.88598	-502.69300	-195.06103	887.84215	-870.24360	-204.47989	753.61243	-895.56354	-160.38747	812.26034	-940.21615	-38.87253	882.65037	-789.49334	-6.32066	907.09891	-728.56607	17.44290	891.20901	-748.58128	-691.55075	618.92026	-545.05082	-685.49917	611.52691	-742.29555	-681.97837	621.16190	-550.94926	-668.21321	623.05608	-729.87304	
650	6.49000000	-275.46736	592.12322	-370.03066	-219.37783	461.49615	-348.40334	-306.97285	104.29744	-330.68941	-357.45862	70.52127	-396.78968	-173.54793	47.62085	-285.61557	-133.93348	82.12214	-330.05166	-261.63245	580.02304	-911.22216	-196.09892	397.55098	-909.68463	-322.05054	113.57500	-923.93140	-379.66306	74.07188	-862.96903	-187.29766	38.43516	-969.61758	-142.47961	71.69765	-916.77156	-229.46512	347.74012	-346.35287	-289.50796	465.49360	-322.22980	-303.41503	354.45432	-309.96551	-266.71331	419.56058	-960.75082	-292.52530	303.09718	-951.00801	-551.70914	663.47618	-413.83896	-443.93244	669.51596	-386.75385	-425.17297	603.84031	-372.04690	-553.36823	553.42688	-423.24868	-437.10651	552.47545	-395.93154	-532.63500	687.67851	-862.19030	-401.03429	676.91085	-889.12531	-553.28113	583.03794	-886.27197	-418.28567	573.11283	-919.93189	-612.44542	712.72862	-505.66724	-787.65828	745.62011	-613.17672	-603.49446	696.54869	-778.22755	-781.68944	746.66137	-700.76335	-423.73455	1114.56939	-649.74515	-346.72339	1060.82580	-500.50714	-351.40986	1077.71842	-792.26996	-339.16006	970.86230	-622.49747	-339.07649	967.94857	-667.15637	-230.76587	879.64532	-400.78488	-223.92508	723.27266	-371.94223	-200.32611	786.20541	-310.73140	-65.93327	860.01118	-457.52730	-13.83400	892.98269	-518.51336	10.62776	869.46659	-503.43497	-200.65124	888.28127	-870.40055	-211.75319	754.07297	-896.20473	-166.87510	812.27415	-940.68835	-44.35739	880.19163	-789.61460	-11.17103	904.18306	-728.70097	12.08118	887.77616	-749.17534	-692.81841	619.15258	-545.15368	-687.40668	612.05435	-742.42812	-683.13260	621.22230	-550.37976	-670.87688	623.36142	-730.25062	
651	6.50000000	-276.38239	591.84156	-369.40223	-219.74905	461.54230	-347.52553	-306.19736	104.02907	-330.23328	-356.85116	70.89768	-396.57876	-173.03745	46.22591	-285.33734	-133.16005	80.50006	-329.78396	-262.99134	580.18645	-912.19658	-196.82175	397.84262	-910.61549	-322.01700	113.49923	-924.14786	-379.55168	74.25741	-863.18909	-187.18805	38.12462	-969.63464	-142.42236	71.42593	-916.87720	-229.46989	347.82403	-345.35362	-290.06139	465.27307	-321.57495	-303.47471	354.27194	-309.25371	-267.54227	419.55547	-961.52238	-293.17873	303.05447	-951.55060	-552.84035	663.14889	-413.28118	-445.04739	669.09729	-386.39879	-426.02667	603.62383	-371.37673	-554.14275	553.00651	-422.81320	-437.98228	552.32437	-395.31633	-534.04076	687.68656	-862.73129	-402.52404	676.95290	-889.75176	-554.60351	582.91367	-886.52662	-419.68779	573.23426	-920.62629	-614.70998	713.12175	-505.69139	-789.70463	744.64374	-612.69903	-605.70953	697.08146	-778.42910	-784.13370	745.71614	-700.37771	-428.17316	1116.08980	-649.58653	-351.17562	1062.63512	-499.98689	-355.81342	1079.34547	-792.34634	-342.93976	973.47087	-622.21212	-342.83456	970.49517	-666.69728	-235.94334	880.37593	-401.06153	-230.65642	723.47082	-372.47109	-206.07402	786.65053	-310.92251	-70.81911	857.86969	-458.58937	-18.38661	889.95683	-519.60151	5.61533	866.16087	-504.38998	-205.90407	889.04008	-870.52388	-218.30504	754.82295	-897.07552	-172.68895	812.75431	-941.14629	-49.37816	878.24279	-789.71173	-15.68798	901.44375	-728.75454	7.36844	884.58732	-749.11001	-694.06762	618.88632	-545.04984	-688.92757	611.92121	-742.33645	-684.31467	621.11636	-550.08223	-672.87555	623.31816	-730.12256	
